<?xml version="1.0" encoding="UTF-8"?>
<svg version="1.1" xmlns="http://www.w3.org/2000/svg" width="240" height="240">
<path d="M0 0 C21.45758648 17.73835147 36.45617456 41.62513469 41.09814453 69.32275391 C41.56277292 74.45654826 41.57293928 79.599387 41.54418945 84.75048828 C41.53570344 87.05674451 41.56451811 89.36049166 41.59619141 91.66650391 C41.66372615 105.62027782 39.340168 119.00680422 33.28564453 131.69775391 C32.76635376 132.82032593 32.76635376 132.82032593 32.23657227 133.96557617 C19.02872132 161.90584144 -4.07684825 181.65296552 -32.58935547 192.63525391 C-43.92275398 196.35621628 -54.47040564 197.83498846 -66.32958984 197.76879883 C-68.63584607 197.76031281 -70.93959323 197.78912749 -73.24560547 197.82080078 C-87.19937938 197.88833552 -100.58590578 195.56477737 -113.27685547 189.51025391 C-114.39942749 188.99096313 -114.39942749 188.99096313 -115.54467773 188.46118164 C-141.62606239 176.13205599 -162.56452151 154.27107253 -172.90185547 127.32275391 C-174.89192338 121.73800269 -176.49361572 116.0792163 -177.90185547 110.32275391 C-178.14806641 109.34564453 -178.39427734 108.36853516 -178.64794922 107.36181641 C-184.24046594 80.44059801 -177.66185842 50.99436422 -163.015625 28.00634766 C-146.9899912 3.78171577 -124.27237367 -13.66925413 -95.90185547 -20.67724609 C-94.71849609 -20.97501953 -93.53513672 -21.27279297 -92.31591797 -21.57958984 C-60.14172498 -28.66052278 -25.67157103 -20.62050072 0 0 Z " fill="#1E1E1E" transform="translate(188.90185546875,32.67724609375)"/>
<path d="M0 0 C0.66 0 1.32 0 2 0 C1.71125 0.886875 1.4225 1.77375 1.125 2.6875 C0.60710894 6.24415631 0.60710894 6.24415631 3.625 8.9375 C6.75191081 11.2932937 6.75191081 11.2932937 9.875 10.8125 C10.57625 10.544375 11.2775 10.27625 12 10 C11.731875 10.70125 11.46375 11.4025 11.1875 12.125 C10.9698258 15.4626711 11.33579561 15.78470875 13.4375 18.1875 C14.283125 19.115625 15.12875 20.04375 16 21 C16 21.66 16 22.32 16 23 C16.99 22.34 17.98 21.68 19 21 C19.99 21.33 20.98 21.66 22 22 C20.68 22.66 19.36 23.32 18 24 C20.31 27.3 22.62 30.6 25 34 C26.32 33.67 27.64 33.34 29 33 C28.01 34.32 27.02 35.64 26 37 C26.495 38.093125 26.99 39.18625 27.5 40.3125 C29 44 29 44 29 47 C31.97 46.505 31.97 46.505 35 46 C35 46.66 35 47.32 35 48 C33.68 48.33 32.36 48.66 31 49 C31.99 53.95 31.99 53.95 33 59 C34.65 59.33 36.3 59.66 38 60 C37.67 60.66 37.34 61.32 37 62 C35.68 62 34.36 62 33 62 C33.165 62.495 33.33 62.99 33.5 63.5 C34.20688818 67.03444089 34.06005155 70.39690701 34 74 C35.65 74 37.3 74 39 74 C39 74.66 39 75.32 39 76 C37.35 76 35.7 76 34 76 C34.01160156 76.59167969 34.02320313 77.18335937 34.03515625 77.79296875 C34.08322386 82.00231785 34.06006883 85.8922333 33 90 C34.32 90.33 35.64 90.66 37 91 C35.35 91 33.7 91 32 91 C32.061875 91.845625 32.12375 92.69125 32.1875 93.5625 C31.95984372 97.73619843 30.79792186 100.25432947 29 104 C30.32 104.33 31.64 104.66 33 105 C33 105.66 33 106.32 33 107 C31.35 106.67 29.7 106.34 28 106 C27.69255859 106.92232422 27.69255859 106.92232422 27.37890625 107.86328125 C26.25260417 111.2421875 25.12630208 114.62109375 24 118 C24.99 118.99 25.98 119.98 27 121 C23.42959697 120.34097701 20.82267745 118.83770842 17.75 116.9375 C16.85796875 116.38964844 15.9659375 115.84179688 15.046875 115.27734375 C14.03367188 114.64505859 14.03367188 114.64505859 13 114 C12.731875 114.721875 12.46375 115.44375 12.1875 116.1875 C11 119 11 119 8 124 C11.3 126.97 14.6 129.94 18 133 C17.01 133.33 16.02 133.66 15 134 C13.0625 132.6015625 13.0625 132.6015625 11 130.625 C8.5390824 128.28526395 7.26348876 127.08782959 4 126 C4 126.66 4 127.32 4 128 C2.04072937 129.7143618 0.04119788 131.38405168 -2 133 C0.97 136.96 0.97 136.96 4 141 C3.67 141.66 3.34 142.32 3 143 C1.02 140.69 -0.96 138.38 -3 136 C-6.45925163 137.2491742 -9.14693203 138.67527795 -12 141 C-10.87811159 144.08519311 -9.5383537 146.86805649 -7.875 149.6875 C-6 153 -6 153 -6 155 C-6.99 155 -7.98 155 -9 155 C-10.98 151.37 -12.96 147.74 -15 144 C-20.22422426 144.75335331 -20.22422426 144.75335331 -25 148 C-23.68 152.29 -22.36 156.58 -21 161 C-21.66 161 -22.32 161 -23 161 C-23.67057887 159.2097939 -24.3363469 157.41778511 -25 155.625 C-25.37125 154.62726563 -25.7425 153.62953125 -26.125 152.6015625 C-27 150 -27 150 -27 148 C-27.70125 148.33 -28.4025 148.66 -29.125 149 C-32 150 -32 150 -38 150 C-37.01 157.425 -37.01 157.425 -36 165 C-36.66 165 -37.32 165 -38 165 C-39.32 160.71 -40.64 156.42 -42 152 C-45.3 152 -48.6 152 -52 152 C-52 156.95 -52 161.9 -52 167 C-52.66 167 -53.32 167 -54 167 C-54 162.05 -54 157.1 -54 152 C-57.63 152 -61.26 152 -65 152 C-65.66 155.96 -66.32 159.92 -67 164 C-67.99 164.33 -68.98 164.66 -70 165 C-69.01 157.575 -69.01 157.575 -68 150 C-70.27864583 149.77213542 -72.55729167 149.54427083 -74.8359375 149.31640625 C-77 149 -77 149 -79 148 C-79.20496094 148.77085937 -79.40992187 149.54171875 -79.62109375 150.3359375 C-79.89050781 151.33882812 -80.15992188 152.34171875 -80.4375 153.375 C-80.70433594 154.37273437 -80.97117188 155.37046875 -81.24609375 156.3984375 C-82 159 -82 159 -83 161 C-83.66 160.67 -84.32 160.34 -85 160 C-83.68 156.04 -82.36 152.08 -81 148 C-84.3 146.02 -87.6 144.04 -91 142 C-91.66 143.65 -92.32 145.3 -93 147 C-93.79458068 148.45927798 -94.62679445 149.89886541 -95.5 151.3125 C-96.13421875 152.35857422 -96.13421875 152.35857422 -96.78125 153.42578125 C-97.1834375 153.94527344 -97.585625 154.46476563 -98 155 C-98.66 155 -99.32 155 -100 155 C-98.87367671 151.90261095 -97.5297213 149.17365478 -95.8125 146.375 C-95.214375 145.26125 -94.61625 144.1475 -94 143 C-95.25125384 139.24623848 -96.5652404 138.75926711 -100 137 C-100.66 137 -101.32 137 -102 137 C-103.43581474 138.61457079 -104.80144783 140.29219075 -106.125 142 C-107.21167969 143.3921875 -107.21167969 143.3921875 -108.3203125 144.8125 C-108.87460938 145.534375 -109.42890625 146.25625 -110 147 C-110 143.19654123 -108.86213669 142.22298985 -106.5 139.3125 C-105.8503125 138.50425781 -105.200625 137.69601563 -104.53125 136.86328125 C-104.0259375 136.24839844 -103.520625 135.63351563 -103 135 C-104.65 133.02 -106.3 131.04 -108 129 C-111.65425988 129.58173195 -113.45967587 131.05425771 -116.125 133.5625 C-119.79074447 137 -119.79074447 137 -122 137 C-120.63202733 132.89608198 -118.02362118 131.370424 -114.71484375 128.71875 C-112.64684906 127.05069778 -112.64684906 127.05069778 -113 124 C-115.43750025 121.31232422 -115.43750025 121.31232422 -118 119 C-118.69867188 119.44472656 -119.39734375 119.88945312 -120.1171875 120.34765625 C-121.02726562 120.91355469 -121.93734375 121.47945313 -122.875 122.0625 C-123.77992187 122.63097656 -124.68484375 123.19945312 -125.6171875 123.78515625 C-126.40351562 124.18605469 -127.18984375 124.58695312 -128 125 C-128.66 124.67 -129.32 124.34 -130 124 C-128.3790787 122.82767315 -126.75313167 121.6622923 -125.125 120.5 C-124.22007813 119.8503125 -123.31515625 119.200625 -122.3828125 118.53125 C-120 117 -120 117 -118 117 C-118.66 115.88625 -119.32 114.7725 -120 113.625 C-122 110.25 -122 110.25 -122 108 C-122.91523437 108.3609375 -123.83046875 108.721875 -124.7734375 109.09375 C-126.55621094 109.78984375 -126.55621094 109.78984375 -128.375 110.5 C-130.15003906 111.19609375 -130.15003906 111.19609375 -131.9609375 111.90625 C-135 113 -135 113 -137 113 C-137 112.34 -137 111.68 -137 111 C-132.95546473 107.96659855 -128.84804991 107.06821439 -124 106 C-125.485 101.05 -125.485 101.05 -127 96 C-128.12148437 96.34224609 -128.12148437 96.34224609 -129.265625 96.69140625 C-130.25046875 96.97886719 -131.2353125 97.26632813 -132.25 97.5625 C-133.22453125 97.85253906 -134.1990625 98.14257812 -135.203125 98.44140625 C-138 99 -138 99 -142 98 C-137.71 96.68 -133.42 95.36 -129 94 C-128.67 92.02 -128.34 90.04 -128 88 C-125.03 88 -122.06 88 -119 88 C-119 87.01 -119 86.02 -119 85 C-124.445 85.99 -124.445 85.99 -130 87 C-130 86.34 -130 85.68 -130 85 C-134.62 85 -139.24 85 -144 85 C-144 84.34 -144 83.68 -144 83 C-143.41508789 82.94465088 -142.83017578 82.88930176 -142.22753906 82.83227539 C-139.56804892 82.57882735 -136.90903168 82.32071175 -134.25 82.0625 C-133.32960938 81.97548828 -132.40921875 81.88847656 -131.4609375 81.79882812 C-130.57148438 81.71181641 -129.68203125 81.62480469 -128.765625 81.53515625 C-127.94868164 81.456604 -127.13173828 81.37805176 -126.29003906 81.29711914 C-124.08141996 81.01056376 -122.0988093 80.75129745 -120 80 C-119.34 79.01 -118.68 78.02 -118 77 C-114.875 76.8125 -114.875 76.8125 -112 77 C-112 79.64 -112 82.28 -112 85 C-111.34 85 -110.68 85 -110 85 C-110 85.66 -110 86.32 -110 87 C-112.64 87 -115.28 87 -118 87 C-115.25857121 101.25542972 -109.42626575 112.8658888 -99 123 C-98.39800781 123.62261719 -97.79601562 124.24523437 -97.17578125 124.88671875 C-84.33069173 137.28599172 -67.82932858 141.53540315 -50.44799805 141.42016602 C-32.98149194 140.90221088 -17.11978716 133.44734898 -5 121 C-4.37738281 120.40960938 -3.75476563 119.81921875 -3.11328125 119.2109375 C3.01540875 112.95829647 6.33831317 104.8369609 10 97 C13.35433109 97.94933899 16.69246505 98.89748835 20 100 C20.99 96.37 21.98 92.74 23 89 C21.35 89 19.7 89 18 89 C18 88.34 18 87.68 18 87 C19.65 87 21.3 87 23 87 C23.33 83.37 23.66 79.74 24 76 C20.7 76 17.4 76 14 76 C14 75.34 14 74.68 14 74 C17.3 74 20.6 74 24 74 C24 70.7 24 67.4 24 64 C22.02 64 20.04 64 18 64 C18.680625 63.690625 19.36125 63.38125 20.0625 63.0625 C22.24225528 61.20387017 22.24225528 61.20387017 22.04296875 58.796875 C21.77452886 56.52050475 21.39273855 54.25824665 21 52 C16.05 53.485 16.05 53.485 11 55 C11.33 54.01 11.66 53.02 12 52 C15.5625 50.8125 15.5625 50.8125 19 50 C18.01 47.36 17.02 44.72 16 42 C13.525 42.495 13.525 42.495 11 43 C11 42.34 11 41.68 11 41 C12.32 40.67 13.64 40.34 15 40 C14.34 38.88625 13.68 37.7725 13 36.625 C11 33.25 11 33.25 11 31 C10.44570312 31.3609375 9.89140625 31.721875 9.3203125 32.09375 C8.59585938 32.5578125 7.87140625 33.021875 7.125 33.5 C6.40570313 33.9640625 5.68640625 34.428125 4.9453125 34.90625 C3 36 3 36 1 36 C2.24546405 32.26360784 3.63404953 31.81243487 7 30 C6.42618522 26.67187429 5.40619252 25.30157545 3 23 C3 22.34 3 21.68 3 21 C2.34 21 1.68 21 1 21 C1 20.34 1 19.68 1 19 C0.443125 18.731875 -0.11375 18.46375 -0.6875 18.1875 C-3.19712523 16.89877353 -5.59334236 15.47073522 -8 14 C-8.28875 14.598125 -8.5775 15.19625 -8.875 15.8125 C-10 18 -10 18 -12 21 C-12.66 21 -13.32 21 -14 21 C-12.37366488 15.84655059 -9.22052222 11.93722213 -6 7.6875 C-5.4534375 6.94693359 -4.906875 6.20636719 -4.34375 5.44335938 C-3.8178125 4.74404297 -3.291875 4.04472656 -2.75 3.32421875 C-2.27046875 2.68572998 -1.7909375 2.04724121 -1.296875 1.3894043 C-0.86890625 0.93090088 -0.4409375 0.47239746 0 0 Z " fill="#18C618" transform="translate(173,45)"/>
<path d="M0 0 C0.66 0 1.32 0 2 0 C1.566875 1.3303125 1.566875 1.3303125 1.125 2.6875 C0.60710894 6.24415631 0.60710894 6.24415631 3.625 8.9375 C6.75191081 11.2932937 6.75191081 11.2932937 9.875 10.8125 C10.57625 10.544375 11.2775 10.27625 12 10 C11.731875 10.70125 11.46375 11.4025 11.1875 12.125 C10.9698258 15.4626711 11.33579561 15.78470875 13.4375 18.1875 C14.283125 19.115625 15.12875 20.04375 16 21 C16 21.66 16 22.32 16 23 C16.99 22.34 17.98 21.68 19 21 C19.99 21.33 20.98 21.66 22 22 C20.02 22.99 20.02 22.99 18 24 C20.31 27.3 22.62 30.6 25 34 C26.98 33.505 26.98 33.505 29 33 C28.01 34.32 27.02 35.64 26 37 C26.495 38.093125 26.99 39.18625 27.5 40.3125 C29 44 29 44 29 47 C31.97 46.505 31.97 46.505 35 46 C35 46.66 35 47.32 35 48 C33.02 48.495 33.02 48.495 31 49 C31.66 52.3 32.32 55.6 33 59 C34.65 59.33 36.3 59.66 38 60 C37.505 60.99 37.505 60.99 37 62 C35.68 62 34.36 62 33 62 C33.165 62.495 33.33 62.99 33.5 63.5 C34.20688818 67.03444089 34.06005155 70.39690701 34 74 C35.65 74 37.3 74 39 74 C39 74.66 39 75.32 39 76 C37.35 76 35.7 76 34 76 C34.01160156 76.59167969 34.02320313 77.18335937 34.03515625 77.79296875 C34.08322386 82.00231785 34.06006883 85.8922333 33 90 C34.32 90.33 35.64 90.66 37 91 C35.35 91 33.7 91 32 91 C32.061875 91.845625 32.12375 92.69125 32.1875 93.5625 C31.95984372 97.73619843 30.79792186 100.25432947 29 104 C30.32 104.33 31.64 104.66 33 105 C33 105.66 33 106.32 33 107 C31.35 106.67 29.7 106.34 28 106 C27.79503906 106.61488281 27.59007812 107.22976562 27.37890625 107.86328125 C26.25260417 111.2421875 25.12630208 114.62109375 24 118 C24.99 118.99 25.98 119.98 27 121 C23.08885974 120.32599282 20.12880818 118.45743967 16.75 116.4375 C15.67234375 115.79683594 14.5946875 115.15617187 13.484375 114.49609375 C12.66453125 114.00238281 11.8446875 113.50867188 11 113 C11.61359375 112.76539063 12.2271875 112.53078125 12.859375 112.2890625 C15.5630421 110.6609418 16.09053534 109.27366164 17.25 106.375 C17.58515625 105.55773437 17.9203125 104.74046875 18.265625 103.8984375 C18.50796875 103.27195312 18.7503125 102.64546875 19 102 C17.88625 101.814375 17.88625 101.814375 16.75 101.625 C14.19858515 101.04513299 12.2732427 100.26291261 10 99 C10 98.34 10 97.68 10 97 C13.35433109 97.94933899 16.69246505 98.89748835 20 100 C20.99 96.37 21.98 92.74 23 89 C21.35 89 19.7 89 18 89 C18 88.34 18 87.68 18 87 C19.65 87 21.3 87 23 87 C23.33 83.37 23.66 79.74 24 76 C20.7 76 17.4 76 14 76 C14 75.34 14 74.68 14 74 C17.3 74 20.6 74 24 74 C24 70.7 24 67.4 24 64 C22.02 64 20.04 64 18 64 C18.680625 63.690625 19.36125 63.38125 20.0625 63.0625 C22.24225528 61.20387017 22.24225528 61.20387017 22.04296875 58.796875 C21.77452886 56.52050475 21.39273855 54.25824665 21 52 C17.7 52.99 14.4 53.98 11 55 C11.33 54.01 11.66 53.02 12 52 C15.5625 50.8125 15.5625 50.8125 19 50 C18.01 47.36 17.02 44.72 16 42 C13.525 42.495 13.525 42.495 11 43 C11 42.34 11 41.68 11 41 C12.98 40.505 12.98 40.505 15 40 C14.34 38.88625 13.68 37.7725 13 36.625 C11 33.25 11 33.25 11 31 C10.44570312 31.3609375 9.89140625 31.721875 9.3203125 32.09375 C8.59585938 32.5578125 7.87140625 33.021875 7.125 33.5 C6.40570313 33.9640625 5.68640625 34.428125 4.9453125 34.90625 C3 36 3 36 1 36 C2.24546405 32.26360784 3.63404953 31.81243487 7 30 C6.42618522 26.67187429 5.40619252 25.30157545 3 23 C3 22.34 3 21.68 3 21 C2.34 21 1.68 21 1 21 C1 20.34 1 19.68 1 19 C0.443125 18.731875 -0.11375 18.46375 -0.6875 18.1875 C-3.19712523 16.89877353 -5.59334236 15.47073522 -8 14 C-8.28875 14.598125 -8.5775 15.19625 -8.875 15.8125 C-10 18 -10 18 -12 21 C-12.66 21 -13.32 21 -14 21 C-12.37366488 15.84655059 -9.22052222 11.93722213 -6 7.6875 C-5.18015625 6.57665039 -5.18015625 6.57665039 -4.34375 5.44335938 C-3.8178125 4.74404297 -3.291875 4.04472656 -2.75 3.32421875 C-2.27046875 2.68572998 -1.7909375 2.04724121 -1.296875 1.3894043 C-0.86890625 0.93090088 -0.4409375 0.47239746 0 0 Z " fill="#F4F7F4" transform="translate(173,45)"/>
<path d="M0 0 C2.31 0 4.62 0 7 0 C7 2.64 7 5.28 7 8 C7.66 8 8.32 8 9 8 C9 8.66 9 9.32 9 10 C6.36 10 3.72 10 1 10 C4.4882205 28.1387466 13.56214412 41.70080844 28 53 C30.79143463 54.86303105 30.79143463 54.86303105 33 56 C31.50273226 61.39356674 28.96374604 65.69228125 26 70.375 C25.54882812 71.11105469 25.09765625 71.84710938 24.6328125 72.60546875 C24.19710937 73.30027344 23.76140625 73.99507813 23.3125 74.7109375 C22.91675781 75.34306152 22.52101562 75.97518555 22.11328125 76.62646484 C21.74589844 77.07973145 21.37851563 77.53299805 21 78 C20.34 78 19.68 78 19 78 C20.12632329 74.90261095 21.4702787 72.17365478 23.1875 69.375 C23.785625 68.26125 24.38375 67.1475 25 66 C23.74874616 62.24623848 22.4347596 61.75926711 19 60 C18.34 60 17.68 60 17 60 C15.56418526 61.61457079 14.19855217 63.29219075 12.875 65 C12.15054688 65.928125 11.42609375 66.85625 10.6796875 67.8125 C9.84824219 68.8953125 9.84824219 68.8953125 9 70 C9 66.19654123 10.13786331 65.22298985 12.5 62.3125 C13.1496875 61.50425781 13.799375 60.69601563 14.46875 59.86328125 C14.9740625 59.24839844 15.479375 58.63351563 16 58 C14.35 56.02 12.7 54.04 11 52 C7.34574012 52.58173195 5.54032413 54.05425771 2.875 56.5625 C-0.79074447 60 -0.79074447 60 -3 60 C-1.63202733 55.89608198 0.97637882 54.370424 4.28515625 51.71875 C6.35315094 50.05069778 6.35315094 50.05069778 6 47 C3.56249975 44.31232422 3.56249975 44.31232422 1 42 C0.30132812 42.44472656 -0.39734375 42.88945312 -1.1171875 43.34765625 C-2.02726562 43.91355469 -2.93734375 44.47945312 -3.875 45.0625 C-4.77992187 45.63097656 -5.68484375 46.19945312 -6.6171875 46.78515625 C-7.40351562 47.18605469 -8.18984375 47.58695313 -9 48 C-9.66 47.67 -10.32 47.34 -11 47 C-9.3790787 45.82767315 -7.75313167 44.6622923 -6.125 43.5 C-5.22007813 42.8503125 -4.31515625 42.200625 -3.3828125 41.53125 C-1 40 -1 40 1 40 C0.34 38.88625 -0.32 37.7725 -1 36.625 C-3 33.25 -3 33.25 -3 31 C-3.91523437 31.3609375 -4.83046875 31.721875 -5.7734375 32.09375 C-6.96195313 32.5578125 -8.15046875 33.021875 -9.375 33.5 C-10.55835938 33.9640625 -11.74171875 34.428125 -12.9609375 34.90625 C-16 36 -16 36 -18 36 C-18 35.34 -18 34.68 -18 34 C-13.95546473 30.96659855 -9.84804991 30.06821439 -5 29 C-6.485 24.05 -6.485 24.05 -8 19 C-9.12148438 19.34224609 -9.12148438 19.34224609 -10.265625 19.69140625 C-11.25046875 19.97886719 -12.2353125 20.26632813 -13.25 20.5625 C-14.22453125 20.85253906 -15.1990625 21.14257812 -16.203125 21.44140625 C-19 22 -19 22 -23 21 C-18.71 19.68 -14.42 18.36 -10 17 C-9.67 15.02 -9.34 13.04 -9 11 C-6.03 11 -3.06 11 0 11 C0 10.01 0 9.02 0 8 C-3.63 8.66 -7.26 9.32 -11 10 C-11 9.34 -11 8.68 -11 8 C-15.62 8 -20.24 8 -25 8 C-25 7.34 -25 6.68 -25 6 C-24.12263184 5.91697632 -24.12263184 5.91697632 -23.22753906 5.83227539 C-20.56804892 5.57882735 -17.90903168 5.32071175 -15.25 5.0625 C-14.32960938 4.97548828 -13.40921875 4.88847656 -12.4609375 4.79882812 C-11.12675781 4.66831055 -11.12675781 4.66831055 -9.765625 4.53515625 C-8.94868164 4.456604 -8.13173828 4.37805176 -7.29003906 4.29711914 C-4.08633464 3.89276074 -4.08633464 3.89276074 -1 3 C-0.67 2.01 -0.34 1.02 0 0 Z " fill="#EBEB1D" transform="translate(54,122)"/>
<path d="M0 0 C4.79730918 1.55588406 9.50666093 3.30354188 14.21875 5.09765625 C21.05701648 7.31625113 27.75975015 7.11945705 34.875 7.0625 C35.94492188 7.05798828 37.01484375 7.05347656 38.1171875 7.04882812 C40.74484986 7.03709749 43.37239538 7.02068228 46 7 C46.67117267 10.43663614 47.33616071 13.87444041 48 17.3125 C48.28617188 18.77719727 48.28617188 18.77719727 48.578125 20.27148438 C48.75859375 21.20927734 48.9390625 22.14707031 49.125 23.11328125 C49.37636719 24.40939331 49.37636719 24.40939331 49.6328125 25.73168945 C50 28 50 28 50 31 C49.34 31 48.68 31 48 31 C46.68 26.71 45.36 22.42 44 18 C40.7 18 37.4 18 34 18 C34 22.95 34 27.9 34 33 C33.34 33 32.68 33 32 33 C32 28.05 32 23.1 32 18 C28.37 18 24.74 18 21 18 C20.34 21.96 19.68 25.92 19 30 C18.01 30.33 17.02 30.66 16 31 C16.66 26.05 17.32 21.1 18 16 C14.58203125 15.65820312 14.58203125 15.65820312 11.1640625 15.31640625 C9 15 9 15 7 14 C6.79503906 14.77085937 6.59007813 15.54171875 6.37890625 16.3359375 C6.10949219 17.33882812 5.84007813 18.34171875 5.5625 19.375 C5.29566406 20.37273437 5.02882813 21.37046875 4.75390625 22.3984375 C4 25 4 25 3 27 C2.34 26.67 1.68 26.34 1 26 C2.32 22.04 3.64 18.08 5 14 C2.03 12.02 -0.94 10.04 -4 8 C-2 3 -2 3 0 0 Z " fill="#1EC21E" transform="translate(87,179)"/>
<path d="M0 0 C2.31 0 4.62 0 7 0 C7 2.64 7 5.28 7 8 C7.66 8 8.32 8 9 8 C9 8.66 9 9.32 9 10 C6.36 10 3.72 10 1 10 C1.2165625 10.83144531 1.433125 11.66289062 1.65625 12.51953125 C1.9346875 13.60621094 2.213125 14.69289062 2.5 15.8125 C2.7784375 16.89144531 3.056875 17.97039062 3.34375 19.08203125 C4 22 4 22 4 25 C-0.455 26.485 -0.455 26.485 -5 28 C-5.99 25.03 -6.98 22.06 -8 19 C-9.12148438 19.34224609 -9.12148438 19.34224609 -10.265625 19.69140625 C-11.25046875 19.97886719 -12.2353125 20.26632813 -13.25 20.5625 C-14.22453125 20.85253906 -15.1990625 21.14257812 -16.203125 21.44140625 C-19 22 -19 22 -23 21 C-18.71 19.68 -14.42 18.36 -10 17 C-9.67 15.02 -9.34 13.04 -9 11 C-6.03 11 -3.06 11 0 11 C0 10.01 0 9.02 0 8 C-3.63 8.66 -7.26 9.32 -11 10 C-11 9.34 -11 8.68 -11 8 C-15.62 8 -20.24 8 -25 8 C-25 7.34 -25 6.68 -25 6 C-24.12263184 5.91697632 -24.12263184 5.91697632 -23.22753906 5.83227539 C-20.56804892 5.57882735 -17.90903168 5.32071175 -15.25 5.0625 C-14.32960938 4.97548828 -13.40921875 4.88847656 -12.4609375 4.79882812 C-11.12675781 4.66831055 -11.12675781 4.66831055 -9.765625 4.53515625 C-8.94868164 4.456604 -8.13173828 4.37805176 -7.29003906 4.29711914 C-4.08633464 3.89276074 -4.08633464 3.89276074 -1 3 C-0.67 2.01 -0.34 1.02 0 0 Z " fill="#E7E622" transform="translate(54,122)"/>
<path d="M0 0 C3.36244348 1.68122174 5.25388787 2.96645121 7.9375 5.4375 C10.80671864 8.01175224 13.57665878 10.18134998 17 12 C15.50273226 17.39356674 12.96374604 21.69228125 10 26.375 C9.54882812 27.11105469 9.09765625 27.84710938 8.6328125 28.60546875 C7.97925781 29.64767578 7.97925781 29.64767578 7.3125 30.7109375 C6.91675781 31.34306152 6.52101563 31.97518555 6.11328125 32.62646484 C5.74589844 33.07973145 5.37851563 33.53299805 5 34 C4.34 34 3.68 34 3 34 C4.12632329 30.90261095 5.4702787 28.17365478 7.1875 25.375 C7.785625 24.26125 8.38375 23.1475 9 22 C7.74874616 18.24623848 6.4347596 17.75926711 3 16 C2.34 16 1.68 16 1 16 C-0.43581474 17.61457079 -1.80144783 19.29219075 -3.125 21 C-3.84945312 21.928125 -4.57390625 22.85625 -5.3203125 23.8125 C-5.87460938 24.534375 -6.42890625 25.25625 -7 26 C-7 22.19654123 -5.86213669 21.22298985 -3.5 18.3125 C-2.8503125 17.50425781 -2.200625 16.69601563 -1.53125 15.86328125 C-1.0259375 15.24839844 -0.520625 14.63351563 0 14 C-0.78375 13.05125 -1.5675 12.1025 -2.375 11.125 C-2.81585938 10.59132812 -3.25671875 10.05765625 -3.7109375 9.5078125 C-4.75250992 8.28948839 -5.86660097 7.13339903 -7 6 C-4.69 4.02 -2.38 2.04 0 0 Z " fill="#EAEA1E" transform="translate(70,166)"/>
<path d="M0 0 C1.61411598 2.55343432 2.73308325 5.24773258 4 8 C-0.95 10.475 -0.95 10.475 -6 13 C-4.68 17.29 -3.36 21.58 -2 26 C-2.66 26 -3.32 26 -4 26 C-4.67057887 24.2097939 -5.3363469 22.41778511 -6 20.625 C-6.37125 19.62726563 -6.7425 18.62953125 -7.125 17.6015625 C-8 15 -8 15 -8 13 C-8.680625 13.33 -9.36125 13.66 -10.0625 14 C-13.50840238 15.17307315 -16.38397422 15.14180493 -20 15 C-20.33 12.03 -20.66 9.06 -21 6 C-19.700625 5.5875 -18.40125 5.175 -17.0625 4.75 C-12.85002957 3.3658075 -8.91693835 1.6363351 -4.9453125 -0.328125 C-3 -1 -3 -1 0 0 Z " fill="#2FC62F" transform="translate(154,180)"/>
<path d="M0 0 C4.88093605 1.58300629 9.69471398 3.33208742 14.51171875 5.09765625 C16.33193841 5.75773591 18.16315099 6.387717 20 7 C19.67 9.97 19.34 12.94 19 16 C17.3745692 15.85904936 15.74965949 15.71207913 14.125 15.5625 C13.22007813 15.48128906 12.31515625 15.40007812 11.3828125 15.31640625 C9 15 9 15 7 14 C6.79503906 14.77085937 6.59007813 15.54171875 6.37890625 16.3359375 C6.10949219 17.33882812 5.84007813 18.34171875 5.5625 19.375 C5.29566406 20.37273437 5.02882813 21.37046875 4.75390625 22.3984375 C4 25 4 25 3 27 C2.34 26.67 1.68 26.34 1 26 C2.32 22.04 3.64 18.08 5 14 C2.03 12.02 -0.94 10.04 -4 8 C-2 3 -2 3 0 0 Z " fill="#1BC61B" transform="translate(87,179)"/>
<path d="M0 0 C3.3 0.99 6.6 1.98 10 3 C7.51923077 11.68269231 7.51923077 11.68269231 4.890625 13.2890625 C4.26671875 13.52367187 3.6428125 13.75828125 3 14 C3 15.32 3 16.64 3 18 C1.55684393 20.53583139 -0.21406057 22.67827874 -2 25 C-4.64 23.02 -7.28 21.04 -10 19 C-9.195625 17.63875 -9.195625 17.63875 -8.375 16.25 C-5.34217786 10.95892541 -2.69397973 5.46877886 0 0 Z " fill="#07C307" transform="translate(182,144)"/>
<path d="M0 0 C3.3 0 6.6 0 10 0 C10.125 7.625 10.125 7.625 9 11 C7.35 11 5.7 11 4 11 C4 11.66 4 12.32 4 13 C5.65 13 7.3 13 9 13 C8.69078116 14.45903258 8.37751201 15.91720722 8.0625 17.375 C7.88847656 18.18710938 7.71445313 18.99921875 7.53515625 19.8359375 C7 22 7 22 6 24 C2.85262818 23.30058404 -0.02588876 22.23921302 -3 21 C-2.29411026 13.94110263 -1.21786614 6.98795036 0 0 Z " fill="#06C006" transform="translate(187,121)"/>
<path d="M0 0 C0.66 3.3 1.32 6.6 2 10 C1.01 10.495 1.01 10.495 0 11 C0.99 11.33 1.98 11.66 3 12 C3 15.3 3 18.6 3 22 C-0.3 22 -3.6 22 -7 22 C-7.13277344 21.13117188 -7.26554688 20.26234375 -7.40234375 19.3671875 C-7.66724609 17.63855469 -7.66724609 17.63855469 -7.9375 15.875 C-8.11152344 14.73804687 -8.28554687 13.60109375 -8.46484375 12.4296875 C-8.95589266 9.28267331 -9.47018719 6.14069217 -10 3 C-8.70990357 2.49596232 -7.41786211 1.99690074 -6.125 1.5 C-5.04605469 1.08234375 -5.04605469 1.08234375 -3.9453125 0.65625 C-2 0 -2 0 0 0 Z " fill="#07C407" transform="translate(194,97)"/>
<path d="M0 0 C4 6.75 4 6.75 4 9 C2.68 9.33 1.36 9.66 0 10 C1.32 10 2.64 10 4 10 C7.24705682 12.24796241 7.93772558 15.32289622 9 19 C6 21 6 21 -1 22 C-4.96 13.585 -4.96 13.585 -9 5 C-2 0 -2 0 0 0 Z " fill="#05C305" transform="translate(184,76)"/>
<path d="M0 0 C2.31 0 4.62 0 7 0 C7 2.64 7 5.28 7 8 C7.66 8 8.32 8 9 8 C9 8.66 9 9.32 9 10 C6.36 10 3.72 10 1 10 C0.67 10.66 0.34 11.32 0 12 C0 10.68 0 9.36 0 8 C-3.63 8.66 -7.26 9.32 -11 10 C-11 9.34 -11 8.68 -11 8 C-15.62 8 -20.24 8 -25 8 C-25 7.34 -25 6.68 -25 6 C-24.12263184 5.91697632 -24.12263184 5.91697632 -23.22753906 5.83227539 C-20.56804892 5.57882735 -17.90903168 5.32071175 -15.25 5.0625 C-14.32960938 4.97548828 -13.40921875 4.88847656 -12.4609375 4.79882812 C-11.12675781 4.66831055 -11.12675781 4.66831055 -9.765625 4.53515625 C-8.94868164 4.456604 -8.13173828 4.37805176 -7.29003906 4.29711914 C-4.08633464 3.89276074 -4.08633464 3.89276074 -1 3 C-0.67 2.01 -0.34 1.02 0 0 Z " fill="#202220" transform="translate(54,122)"/>
<path d="M0 0 C-0.33 0.99 -0.66 1.98 -1 3 C-0.72428861 5.00875442 -0.39764263 7.01178687 0 9 C-4.1205746 10.99785435 -7.45194365 11.17835515 -12 11 C-12.33 8.03 -12.66 5.06 -13 2 C-11.5882217 1.46605821 -10.17029756 0.94834896 -8.75 0.4375 C-7.96109375 0.14746094 -7.1721875 -0.14257812 -6.359375 -0.44140625 C-3.80896548 -1.04522837 -2.44677771 -0.8473932 0 0 Z " fill="#03C103" transform="translate(146,184)"/>
<path d="M0 0 C6.0546875 -0.1953125 6.0546875 -0.1953125 8 0 C10 2 10 2 10.375 5.4375 C10 9 10 9 8.375 10.9375 C6 12 6 12 0 12 C0 8.04 0 4.08 0 0 Z " fill="#E1DFDF" transform="translate(133,37)"/>
<path d="M0 0 C0.99 0 1.98 0 3 0 C7.93939394 4.93939394 7.93939394 4.93939394 8.125 8.1875 C6.48752889 10.82564789 4.845268 11.80895758 2 13 C-0.9928325 12.11975515 -3.0593931 10.42575863 -5 8 C-5 7.01 -5 6.02 -5 5 C-4.34 5 -3.68 5 -3 5 C-2.5359375 4.0409375 -2.5359375 4.0409375 -2.0625 3.0625 C-1 1 -1 1 0 0 Z " fill="#0FC50F" transform="translate(173,66)"/>
<path d="M0 0 C1.9375 0.8125 1.9375 0.8125 3.9375 2.8125 C4.1875 5.8125 4.1875 5.8125 3.9375 8.8125 C1.9375 10.8125 1.9375 10.8125 -0.5625 11.125 C-1.8 10.9703125 -1.8 10.9703125 -3.0625 10.8125 C-5.21752531 7.57996204 -5.53106135 6.56099077 -5.0625 2.8125 C-3.48626085 0.44814127 -2.87976021 -0.26179638 0 0 Z " fill="#DADADA" transform="translate(149.0625,161.1875)"/>
<path d="M0 0 C4.55555556 0.55555556 4.55555556 0.55555556 6 2 C6.1875 5.4375 6.1875 5.4375 6 9 C5.34 9.66 4.68 10.32 4 11 C-0.55555556 10.44444444 -0.55555556 10.44444444 -2 9 C-2.1875 5.5625 -2.1875 5.5625 -2 2 C-1.34 1.34 -0.68 0.68 0 0 Z " fill="#E8E8E8" transform="translate(87,146)"/>
<path d="M0 0 C4.55555556 0.55555556 4.55555556 0.55555556 6 2 C6.1875 5.4375 6.1875 5.4375 6 9 C5.34 9.66 4.68 10.32 4 11 C-0.55555556 10.44444444 -0.55555556 10.44444444 -2 9 C-2.1875 5.5625 -2.1875 5.5625 -2 2 C-1.34 1.34 -0.68 0.68 0 0 Z " fill="#D6D6D6" transform="translate(175,133)"/>
<path d="M0 0 C4.55555556 0.55555556 4.55555556 0.55555556 6 2 C6.1875 5.4375 6.1875 5.4375 6 9 C5.34 9.66 4.68 10.32 4 11 C-0.55555556 10.44444444 -0.55555556 10.44444444 -2 9 C-2.1875 5.5625 -2.1875 5.5625 -2 2 C-1.34 1.34 -0.68 0.68 0 0 Z " fill="#C2C2C2" transform="translate(91,77)"/>
<path d="M0 0 C4.55555556 0.55555556 4.55555556 0.55555556 6 2 C6.26293056 6.03160191 6.29404844 7.55892734 4 11 C-0.875 10.125 -0.875 10.125 -2 9 C-2.1875 5.5625 -2.1875 5.5625 -2 2 C-1.34 1.34 -0.68 0.68 0 0 Z " fill="#EFEFEF" transform="translate(77,121)"/>
<path d="M0 0 C4.55555556 0.55555556 4.55555556 0.55555556 6 2 C6.26293056 6.03160191 6.29404844 7.55892734 4 11 C-0.875 10.125 -0.875 10.125 -2 9 C-2.1875 5.5625 -2.1875 5.5625 -2 2 C-1.34 1.34 -0.68 0.68 0 0 Z " fill="#D0D0D0" transform="translate(174,95)"/>
<path d="M0 0 C2.31 0 4.62 0 7 0 C7 2.97 7 5.94 7 9 C3 8 3 8 2 7 C2 7.99 2 8.98 2 10 C3.65 10 5.3 10 7 10 C7 10.66 7 11.32 7 12 C4.69 12 2.38 12 0 12 C0 8.04 0 4.08 0 0 Z " fill="#888888" transform="translate(116,37)"/>
<path d="M0 0 C1.65 0 3.3 0 5 0 C7.42857143 6.28571429 7.42857143 6.28571429 6 10 C3.69 10 1.38 10 -1 10 C-2.46726798 6.18510326 -1.43336419 3.70988378 0 0 Z " fill="#9C9C9C" transform="translate(69,98)"/>
<path d="M0 0 C2.4375 0.1875 2.4375 0.1875 3.4375 1.1875 C3.5703125 3 3.5703125 3 3.5625 5.1875 C3.56507813 5.909375 3.56765625 6.63125 3.5703125 7.375 C3.4375 9.1875 3.4375 9.1875 2.4375 10.1875 C0 10.375 0 10.375 -2.5625 10.1875 C-4.5625 8.1875 -4.5625 8.1875 -4.8125 5.1875 C-4.49521834 1.38012011 -3.88988006 0.28462537 0 0 Z " fill="#E9E9E9" transform="translate(154.5625,66.8125)"/>
<path d="M0 0 C2.4375 0.1875 2.4375 0.1875 3.4375 1.1875 C3.57865161 3.85808851 3.47997107 6.51182238 3.4375 9.1875 C0.5625 9.8125 0.5625 9.8125 -2.5625 10.1875 C-4.5625 8.1875 -4.5625 8.1875 -4.8125 5.1875 C-4.49521834 1.38012011 -3.88988006 0.28462537 0 0 Z " fill="#989898" transform="translate(118.5625,169.8125)"/>
<path d="M0 0 C1.2065625 0.0309375 1.2065625 0.0309375 2.4375 0.0625 C3.47778969 3.44344149 3.59422777 6.53612528 3.4375 10.0625 C2.4375 11.0625 2.4375 11.0625 -0.0625 11.1875 C-2.5625 11.0625 -2.5625 11.0625 -3.5625 10.0625 C-3.6604057 8.56511876 -3.69224864 7.06307108 -3.6875 5.5625 C-3.69007813 4.7478125 -3.69265625 3.933125 -3.6953125 3.09375 C-3.49425003 0.01867689 -3.10408492 0.07570939 0 0 Z " fill="#A8A8A8" transform="translate(167.5625,132.9375)"/>
<path d="M0 0 C2.4375 0.1875 2.4375 0.1875 3.4375 1.1875 C3.625 4.625 3.625 4.625 3.4375 8.1875 C2.7775 8.8475 2.1175 9.5075 1.4375 10.1875 C-3.11805556 9.63194444 -3.11805556 9.63194444 -4.5625 8.1875 C-4.75 5.25 -4.75 5.25 -4.5625 2.1875 C-2.5625 0.1875 -2.5625 0.1875 0 0 Z " fill="#ECECEC" transform="translate(158.5625,161.8125)"/>
<path d="M0 0 C4.55555556 0.55555556 4.55555556 0.55555556 6 2 C6.125 5.5 6.125 5.5 6 9 C5 10 5 10 2.5625 10.1875 C0 10 0 10 -2 8 C-2.25 5 -2.25 5 -2 2 C-1.34 1.34 -0.68 0.68 0 0 Z " fill="#EFEFEF" transform="translate(79,98)"/>
<path d="M0 0 C1.1446875 0.3403125 1.1446875 0.3403125 2.3125 0.6875 C0.3325 1.6775 0.3325 1.6775 -1.6875 2.6875 C-0.3675 3.3475 0.9525 4.0075 2.3125 4.6875 C1.9825 6.3375 1.6525 7.9875 1.3125 9.6875 C-0.3375 10.0175 -1.9875 10.3475 -3.6875 10.6875 C-5.84252531 7.45496204 -6.15606135 6.43599077 -5.6875 2.6875 C-3.93031165 -0.08700791 -3.30350824 -0.38412887 0 0 Z " fill="#E2E2E2" transform="translate(167.6875,95.3125)"/>
<path d="M0 0 C1.79133978 -0.05391993 3.58313899 -0.09275571 5.375 -0.125 C6.37273437 -0.14820313 7.37046875 -0.17140625 8.3984375 -0.1953125 C11 0 11 0 13 2 C13.125 5.625 13.125 5.625 13 9 C12.34 9 11.68 9 11 9 C11 6.69 11 4.38 11 2 C9.68 2 8.36 2 7 2 C7 4.31 7 6.62 7 9 C6.34 9 5.68 9 5 9 C5 6.69 5 4.38 5 2 C4.01 2 3.02 2 2 2 C2 4.31 2 6.62 2 9 C1.34 9 0.68 9 0 9 C0 6.03 0 3.06 0 0 Z " fill="#D1D0D0" transform="translate(110,131)"/>
<path d="M0 0 C0 0.66 0 1.32 0 2 C-1.32 2 -2.64 2 -4 2 C-4 2.66 -4 3.32 -4 4 C-2.35 4.33 -0.7 4.66 1 5 C0.67 6.65 0.34 8.3 0 10 C-1.65 10.33 -3.3 10.66 -5 11 C-7 8 -7 8 -6.75 4.375 C-6.5025 3.26125 -6.255 2.1475 -6 1 C-4 0 -4 0 0 0 Z " fill="#E3E3E3" transform="translate(72,121)"/>
<path d="M0 0 C1.98 0 3.96 0 6 0 C6.66 0.66 7.32 1.32 8 2 C7.625 4.125 7.625 4.125 7 6 C5.35 6.33 3.7 6.66 2 7 C2 8.65 2 10.3 2 12 C1.34 12 0.68 12 0 12 C0 8.04 0 4.08 0 0 Z " fill="#E4E2E2" transform="translate(106,37)"/>
<path d="M0 0 C0.66 0 1.32 0 2 0 C2.67117267 3.43663614 3.33616071 6.87444041 4 10.3125 C4.28617188 11.77719727 4.28617188 11.77719727 4.578125 13.27148438 C4.75859375 14.20927734 4.9390625 15.14707031 5.125 16.11328125 C5.29257813 16.97735596 5.46015625 17.84143066 5.6328125 18.73168945 C6 21 6 21 6 24 C5.34 24 4.68 24 4 24 C1.09169144 16.06159801 0.35161161 8.41442956 0 0 Z " fill="#D0DAD0" transform="translate(131,186)"/>
<path d="M0 0 C0.66 0 1.32 0 2 0 C1.41993763 7.75451806 0.37559416 15.34742277 -1 23 C-1.99 23.33 -2.98 23.66 -4 24 C-2.99851833 15.91356821 -1.94661021 7.92548442 0 0 Z " fill="#D0DED0" transform="translate(107,186)"/>
<path d="M0 0 C3.85714079 1.2857136 4.06629516 2.5086394 5.875 6.0625 C8.10302141 10.34030111 10.45809174 14.41931486 13.1171875 18.44140625 C14 20 14 20 14 22 C13.01 22 12.02 22 11 22 C9.15984502 18.7121022 7.32904953 15.41908674 5.5 12.125 C4.97535156 11.18785156 4.45070312 10.25070313 3.91015625 9.28515625 C3.41386719 8.38925781 2.91757813 7.49335938 2.40625 6.5703125 C1.94541016 5.74289551 1.48457031 4.91547852 1.00976562 4.06298828 C0 2 0 2 0 0 Z " fill="#D9D9D9" transform="translate(153,178)"/>
<path d="M0 0 C1.32 0 2.64 0 4 0 C4.33 2.64 4.66 5.28 5 8 C3.02 8.99 3.02 8.99 1 10 C1 9.34 1 8.68 1 8 C-0.32 8 -1.64 8 -3 8 C-2.45276317 4.62537285 -1.9451 2.91765 0 0 Z " fill="#B7B7B7" transform="translate(144,67)"/>
<path d="M0 0 C0.66 0 1.32 0 2 0 C0.50273226 5.39356674 -2.03625396 9.69228125 -5 14.375 C-5.45117188 15.11105469 -5.90234375 15.84710938 -6.3671875 16.60546875 C-7.02074219 17.64767578 -7.02074219 17.64767578 -7.6875 18.7109375 C-8.08324219 19.34306152 -8.47898437 19.97518555 -8.88671875 20.62646484 C-9.25410156 21.07973145 -9.62148437 21.53299805 -10 22 C-10.66 22 -11.32 22 -12 22 C-10.25736039 17.05922066 -7.64021891 12.68718737 -5 8.1875 C-4.54882812 7.39923828 -4.09765625 6.61097656 -3.6328125 5.79882812 C-3.19710937 5.05439453 -2.76140625 4.30996094 -2.3125 3.54296875 C-1.91675781 2.86258545 -1.52101563 2.18220215 -1.11328125 1.48120117 C-0.74589844 0.99240479 -0.37851563 0.5036084 0 0 Z " fill="#DCDCDC" transform="translate(85,178)"/>
<path d="M0 0 C0 0.99 0 1.98 0 3 C-3.04080421 3.50579714 -6.08246646 4.00480759 -9.125 4.5 C-9.9809375 4.64308594 -10.836875 4.78617188 -11.71875 4.93359375 C-16.19671505 5.65695734 -20.44563435 6.17918816 -25 6 C-25 5.34 -25 4.68 -25 4 C-21.39662187 3.32902306 -17.79217704 2.66396043 -14.1875 2 C-13.16333984 1.80921875 -12.13917969 1.6184375 -11.08398438 1.421875 C-9.60961914 1.15117187 -9.60961914 1.15117187 -8.10546875 0.875 C-6.74651489 0.62363281 -6.74651489 0.62363281 -5.36010742 0.3671875 C-3 0 -3 0 0 0 Z " fill="#E00D04" transform="translate(54,130)"/>
<path d="M0 0 C6.46337142 0.99346577 12.0827214 2.2153983 18 5 C19.99263591 5.68836513 21.99041337 6.36281399 24 7 C24 7.66 24 8.32 24 9 C15.73781407 7.40554307 7.93711014 4.73981931 0 2 C0 1.34 0 0.68 0 0 Z " fill="#DDDDDD" transform="translate(32,91)"/>
<path d="M0 0 C0 1.98 0 3.96 0 6 C0.66 6 1.32 6 2 6 C2 6.66 2 7.32 2 8 C1.34 8 0.68 8 0 8 C0 8.66 0 9.32 0 10 C-0.66 10 -1.32 10 -2 10 C-2 9.34 -2 8.68 -2 8 C-3.65 8 -5.3 8 -7 8 C-6.62952882 5.25851328 -6.31412056 3.41406801 -4.625 1.1875 C-3 0 -3 0 0 0 Z " fill="#F1F1F1" transform="translate(82,147)"/>
<path d="M0 0 C4.94077934 1.74263961 9.31281263 4.35978109 13.8125 7 C14.60076172 7.45117188 15.38902344 7.90234375 16.20117188 8.3671875 C17.31782227 9.02074219 17.31782227 9.02074219 18.45703125 9.6875 C19.13741455 10.08324219 19.81779785 10.47898437 20.51879883 10.88671875 C21.00759521 11.25410156 21.4963916 11.62148437 22 12 C22 12.66 22 13.32 22 14 C16.60643326 12.50273226 12.30771875 9.96374604 7.625 7 C6.88894531 6.54882812 6.15289062 6.09765625 5.39453125 5.6328125 C4.69972656 5.19710937 4.00492188 4.76140625 3.2890625 4.3125 C2.65693848 3.91675781 2.02481445 3.52101563 1.37353516 3.11328125 C0.92026855 2.74589844 0.46700195 2.37851563 0 2 C0 1.34 0 0.68 0 0 Z " fill="#DADADA" transform="translate(40,73)"/>
<path d="M0 0 C0.66 0.66 1.32 1.32 2 2 C-0.06057175 3.91877545 -2.12337063 5.83505798 -4.1875 7.75 C-4.76564453 8.28882813 -5.34378906 8.82765625 -5.93945312 9.3828125 C-15.23971037 18 -15.23971037 18 -18 18 C-16.89822514 14.69467543 -16.10316567 13.98696973 -13.5 11.8125 C-12.7884375 11.20921875 -12.076875 10.6059375 -11.34375 9.984375 C-10.5703125 9.32953125 -9.796875 8.6746875 -9 8 C-7.32937152 6.52530943 -5.66261168 5.04622309 -4 3.5625 C-3.236875 2.88316406 -2.47375 2.20382813 -1.6875 1.50390625 C-1.130625 1.00761719 -0.57375 0.51132813 0 0 Z " fill="#E2E2E2" transform="translate(69,164)"/>
<path d="M0 0 C3.17568033 1.42088605 5.49398464 3.16408623 8.0625 5.5 C10.33432007 7.55815561 12.43707257 9.29138171 15 11 C15 11.66 15 12.32 15 13 C16.32 13.66 17.64 14.32 19 15 C19 15.99 19 16.98 19 18 C13.76221 14.32240277 9.18421377 10.36319332 4.76171875 5.734375 C2.9146021 3.80697177 2.9146021 3.80697177 0 2 C0 1.34 0 0.68 0 0 Z " fill="#E4E4E4" transform="translate(51,58)"/>
<path d="M0 0 C2.97 0.495 2.97 0.495 6 1 C6.04241723 3.33294775 6.04092937 5.66702567 6 8 C5 9 5 9 2.4375 9.0625 C1.633125 9.041875 0.82875 9.02125 0 9 C0 6.03 0 3.06 0 0 Z " fill="#171717" transform="translate(135,38)"/>
<path d="M0 0 C5.29480026 1.54217483 8.79665937 5.02803653 12.8125 8.625 C13.50537109 9.23601562 14.19824219 9.84703125 14.91210938 10.4765625 C16.61347679 11.97845925 18.30911958 13.48632003 20 15 C19.01 15.33 18.02 15.66 17 16 C16.35933594 15.40832031 15.71867188 14.81664062 15.05859375 14.20703125 C9.20432227 8.84090817 9.20432227 8.84090817 2.875 4.0625 C1.92625 3.381875 0.9775 2.70125 0 2 C0 1.34 0 0.68 0 0 Z " fill="#E7F4E7" transform="translate(171,163)"/>
<path d="M0 0 C-2.51712189 1.29935464 -5.03829087 2.58954372 -7.5625 3.875 C-8.26697266 4.23980469 -8.97144531 4.60460937 -9.69726562 4.98046875 C-14.07465515 7.19942197 -18.23641861 8.81066956 -23 10 C-23 9.34 -23 8.68 -23 8 C-18.51319241 4.70967443 -13.15072536 2.98785807 -8 1 C-7.13375 0.60941406 -6.2675 0.21882812 -5.375 -0.18359375 C-3 -1 -3 -1 0 0 Z " fill="#E4E4E2" transform="translate(59,148)"/>
<path d="M0 0 C3.41697238 0.1391669 6.83348757 0.28749585 10.25 0.4375 C11.21808594 0.47681641 12.18617187 0.51613281 13.18359375 0.55664062 C14.58544922 0.61948242 14.58544922 0.61948242 16.015625 0.68359375 C16.87446289 0.72025146 17.73330078 0.75690918 18.61816406 0.79467773 C20.84960143 0.98703514 22.84982524 1.38846244 25 2 C25 2.66 25 3.32 25 4 C16.66360998 3.36804785 8.33049713 2.70546552 0 2 C0 1.34 0 0.68 0 0 Z " fill="#E7E7E7" transform="translate(28,110)"/>
<path d="M0 0 C2.375 -0.125 2.375 -0.125 5 0 C5.66 0.66 6.32 1.32 7 2 C6.63318342 4.93453261 6.13562754 5.86437246 4 8 C4.99 8.33 5.98 8.66 7 9 C7 9.66 7 10.32 7 11 C4.36 11 1.72 11 -1 11 C0.49836105 7.88801935 2.19933758 4.9465385 4 2 C2.68 2.33 1.36 2.66 0 3 C0 2.01 0 1.02 0 0 Z " fill="#DEDEDE" transform="translate(70,77)"/>
<path d="M0 0 C0.66 0 1.32 0 2 0 C2.33 1.32 2.66 2.64 3 4 C3.9590625 4.2165625 3.9590625 4.2165625 4.9375 4.4375 C7 5 7 5 8 6 C8.04092937 8.33297433 8.04241723 10.66705225 8 13 C7.34 13 6.68 13 6 13 C6 10.69 6 8.38 6 6 C4.68 6 3.36 6 2 6 C2 8.31 2 10.62 2 13 C1.34 13 0.68 13 0 13 C0 8.71 0 4.42 0 0 Z " fill="#DAD9D9" transform="translate(131,127)"/>
<path d="M0 0 C0 0.66 0 1.32 0 2 C-2.49927769 2.33970765 -4.99919595 2.67188032 -7.5 3 C-8.19609375 3.09539062 -8.8921875 3.19078125 -9.609375 3.2890625 C-14.44700129 3.9161622 -19.12181196 4.08789528 -24 4 C-24 3.34 -24 2.68 -24 2 C-20.75033015 1.66339508 -17.50021572 1.33128921 -14.25 1 C-13.32960938 0.90460938 -12.40921875 0.80921875 -11.4609375 0.7109375 C-10.12675781 0.57558594 -10.12675781 0.57558594 -8.765625 0.4375 C-7.94868164 0.35371094 -7.13173828 0.26992187 -6.29003906 0.18359375 C-4.19917501 0.01596798 -2.09757262 0 0 0 Z " fill="#DDDDDD" transform="translate(53,126)"/>
<path d="M0 0 C0 3.96 0 7.92 0 12 C-1.32 12.33 -2.64 12.66 -4 13 C-3.34 10.69 -2.68 8.38 -2 6 C-4.475 5.01 -4.475 5.01 -7 4 C-6.67 3.01 -6.34 2.02 -6 1 C-3.90006779 0.25486277 -2.22568901 0 0 0 Z " fill="#0E0E0E" transform="translate(106,37)"/>
<path d="M0 0 C1.98 0 3.96 0 6 0 C6.6875 1.8125 6.6875 1.8125 7 4 C5.5625 5.75 5.5625 5.75 4 7 C4.99 7.33 5.98 7.66 7 8 C7 8.66 7 9.32 7 10 C4.69 10 2.38 10 0 10 C0.59927826 6.64404172 1.84622436 4.62198774 4 2 C2.68 2 1.36 2 0 2 C0 1.34 0 0.68 0 0 Z " fill="#E7E7E7" transform="translate(105,170)"/>
<path d="M0 0 C1.65 0.33 3.3 0.66 5 1 C5.125 4.375 5.125 4.375 5 8 C4.34 8.66 3.68 9.32 3 10 C0.375 9.625 0.375 9.625 -2 9 C-2.33 7.35 -2.66 5.7 -3 4 C-2.34 3.67 -1.68 3.34 -1 3 C-0.814375 3.9590625 -0.814375 3.9590625 -0.625 4.9375 C-0.315625 5.9584375 -0.315625 5.9584375 0 7 C0.66 7.33 1.32 7.66 2 8 C2 5.69 2 3.38 2 1 C1.34 0.67 0.68 0.34 0 0 Z " fill="#E2E2E2" transform="translate(82,78)"/>
<path d="M0 0 C2.31 0 4.62 0 7 0 C7 0.33 7 0.66 7 1 C5.35 1 3.7 1 2 1 C2 2.32 2 3.64 2 5 C3.65 5 5.3 5 7 5 C7 5.33 7 5.66 7 6 C5.35 6 3.7 6 2 6 C2 7.32 2 8.64 2 10 C3.65 10 5.3 10 7 10 C7 10.66 7 11.32 7 12 C4.69 12 2.38 12 0 12 C0 8.04 0 4.08 0 0 Z " fill="#D8D7D7" transform="translate(124,37)"/>
<path d="M0 0 C1.67542976 0.28604898 3.34385343 0.61781233 5 1 C3.02 1.99 3.02 1.99 1 3 C1 3.66 1 4.32 1 5 C2.32 5.66 3.64 6.32 5 7 C5.042721 8.66611905 5.04063832 10.33382885 5 12 C4 13 4 13 0.9375 13.0625 C-0.031875 13.041875 -1.00125 13.02125 -2 13 C-2 12.34 -2 11.68 -2 11 C-0.35 11 1.3 11 3 11 C1.86695008 7.60085025 0.87481525 6.94745549 -2 5 C-1.125 1.125 -1.125 1.125 0 0 Z " fill="#CFCECE" transform="translate(99,36)"/>
<path d="M0 0 C1.65 0 3.3 0 5 0 C5 2.64 5 5.28 5 8 C5.66 8 6.32 8 7 8 C7 8.66 7 9.32 7 10 C4.69 10 2.38 10 0 10 C0 9.34 0 8.68 0 8 C0.66 8 1.32 8 2 8 C2 6.02 2 4.04 2 2 C1.34 2 0.68 2 0 2 C0 1.34 0 0.68 0 0 Z " fill="#D3D3D3" transform="translate(56,122)"/>
<path d="M0 0 C0.33 0.99 0.66 1.98 1 3 C4.465 2.505 4.465 2.505 8 2 C6.55746343 5.36591866 4.66735273 7.51047079 2 10 C2 9.34 2 8.68 2 8 C1.34 8 0.68 8 0 8 C0 5.36 0 2.72 0 0 Z " fill="#0D0D0D" transform="translate(101,170)"/>
<path d="M0 0 C0.33 0 0.66 0 1 0 C1 3.96 1 7.92 1 12 C0.67 11.34 0.34 10.68 0 10 C-1.98 10 -3.96 10 -6 10 C-6 8.68 -6 7.36 -6 6 C-4.35 5.67 -2.7 5.34 -1 5 C-0.67 3.35 -0.34 1.7 0 0 Z " fill="#191919" transform="translate(132,37)"/>
<path d="M0 0 C1.65 0 3.3 0 5 0 C5 2.64 5 5.28 5 8 C5.99 8 6.98 8 8 8 C8 8.66 8 9.32 8 10 C5.69 10 3.38 10 1 10 C1 9.34 1 8.68 1 8 C1.66 8 2.32 8 3 8 C3 6.02 3 4.04 3 2 C2.01 2 1.02 2 0 2 C0 1.34 0 0.68 0 0 Z " fill="#EBEBEB" transform="translate(95,170)"/>
<path d="M0 0 C0.66 0 1.32 0 2 0 C2.25 5.625 2.25 5.625 0 9 C-4.875 8.125 -4.875 8.125 -6 7 C-6.04063832 5.33382885 -6.042721 3.66611905 -6 2 C-5.34 1.67 -4.68 1.34 -4 1 C-3.67 2.65 -3.34 4.3 -3 6 C-2.34 6 -1.68 6 -1 6 C-0.67 4.02 -0.34 2.04 0 0 Z " fill="#EAEAEA" transform="translate(178,97)"/>
<path d="M0 0 C2.0625 0.4375 2.0625 0.4375 4 1 C3.01 1.495 3.01 1.495 2 2 C1.34227572 5.02934491 1.34227572 5.02934491 1 8 C1.99 8 2.98 8 4 8 C4.33 6.35 4.66 4.7 5 3 C5.33 3 5.66 3 6 3 C6 4.98 6 6.96 6 9 C3.625 9.625 3.625 9.625 1 10 C-1 8 -1 8 -1.1875 4.4375 C-1 1 -1 1 0 0 Z " fill="#F2F2F2" transform="translate(90,78)"/>
<path d="M0 0 C1.65 0 3.3 0 5 0 C5 2.64 5 5.28 5 8 C5.99 8 6.98 8 8 8 C8 8.66 8 9.32 8 10 C5.36 10 2.72 10 0 10 C0 9.34 0 8.68 0 8 C0.99 8 1.98 8 3 8 C3 5.69 3 3.38 3 1 C2.01 0.67 1.02 0.34 0 0 Z " fill="#E6E6E6" transform="translate(66,147)"/>
<path d="M0 0 C0.99 0.33 1.98 0.66 3 1 C3 2.98 3 4.96 3 7 C1.35 7.33 -0.3 7.66 -2 8 C-2 5.69 -2 3.38 -2 1 C-1.34 0.67 -0.68 0.34 0 0 Z " fill="#888888" transform="translate(159,162)"/>
<path d="M0 0 C1.32 0 2.64 0 4 0 C4 2.64 4 5.28 4 8 C4.99 8 5.98 8 7 8 C7 8.66 7 9.32 7 10 C4.69 10 2.38 10 0 10 C0 9.34 0 8.68 0 8 C0.66 8 1.32 8 2 8 C2 5.69 2 3.38 2 1 C1.34 0.67 0.68 0.34 0 0 Z " fill="#F6F6F6" transform="translate(136,162)"/>
<path d="M0 0 C0.33 0 0.66 0 1 0 C1.33 1.98 1.66 3.96 2 6 C2.66 5.01 3.32 4.02 4 3 C4.66 3 5.32 3 6 3 C5.814375 3.7425 5.62875 4.485 5.4375 5.25 C5.00796892 7.94990963 5.14877026 9.44631077 6 12 C4.35 11.01 2.7 10.02 1 9 C0.67 9.99 0.34 10.98 0 12 C0 8.04 0 4.08 0 0 Z " fill="#DBDADA" transform="translate(102,128)"/>
<path d="M0 0 C1.32 0 2.64 0 4 0 C4.1953125 2.01822917 4.390625 4.03645833 4.5859375 6.0546875 C4.86374749 8.22668245 4.86374749 8.22668245 7 10 C4.69 10 2.38 10 0 10 C0.66 9.67 1.32 9.34 2 9 C2 6.69 2 4.38 2 2 C1.01 1.67 0.02 1.34 -1 1 C-0.67 0.67 -0.34 0.34 0 0 Z " fill="#F5F5F5" transform="translate(59,98)"/>
<path d="M0 0 C2.0625 0.4375 2.0625 0.4375 4 1 C3.67 1.33 3.34 1.66 3 2 C2.95907063 4.33297433 2.95758277 6.66705225 3 9 C0 8 0 8 -2 5 C-1.48275862 1.48275862 -1.48275862 1.48275862 0 0 Z " fill="#6A6A6A" transform="translate(81,77)"/>
<path d="M0 0 C0.33 0 0.66 0 1 0 C1.0825 1.093125 1.165 2.18625 1.25 3.3125 C1.63689209 7.03276664 1.63689209 7.03276664 4.0625 8.9375 C4.701875 9.288125 5.34125 9.63875 6 10 C5.67 10.99 5.34 11.98 5 13 C3.35 13.33 1.7 13.66 0 14 C0.66 12.68 1.32 11.36 2 10 C1.01 10 0.02 10 -1 10 C-1.66 9.67 -2.32 9.34 -3 9 C-2.34 8.34 -1.68 7.68 -1 7 C-0.59952556 4.67724823 -0.2602896 2.34260643 0 0 Z " fill="#131213" transform="translate(153,163)"/>
<path d="M0 0 C0.99 0 1.98 0 3 0 C3.33 2.64 3.66 5.28 4 8 C2.35 8.33 0.7 8.66 -1 9 C-0.34 7.68 0.32 6.36 1 5 C0.01 5 -0.98 5 -2 5 C-2 4.34 -2 3.68 -2 3 C-1.01 3 -0.02 3 1 3 C0.67 2.01 0.34 1.02 0 0 Z " fill="#E5E5E5" transform="translate(72,99)"/>
<path d="M0 0 C0.33 0 0.66 0 1 0 C1 3.96 1 7.92 1 12 C0.34 11.01 -0.32 10.02 -1 9 C-1.99 9.99 -2.98 10.98 -4 12 C-3.52309796 10.37433394 -3.04340334 8.74948689 -2.5625 7.125 C-2.29566406 6.22007812 -2.02882813 5.31515625 -1.75390625 4.3828125 C-1 2 -1 2 0 0 Z " fill="#0E0E0E" transform="translate(130,128)"/>
<path d="M0 0 C0.99 0.33 1.98 0.66 3 1 C2.34 1 1.68 1 1 1 C1 3.64 1 6.28 1 9 C1.66 9.33 2.32 9.66 3 10 C-0.875 9.125 -0.875 9.125 -2 8 C-2.1875 5.0625 -2.1875 5.0625 -2 2 C-1.34 1.34 -0.68 0.68 0 0 Z " fill="#ECECEC" transform="translate(116,170)"/>
<path d="M0 0 C0.33 0.66 0.66 1.32 1 2 C2.65 1.34 4.3 0.68 6 0 C5.690625 0.515625 5.38125 1.03125 5.0625 1.5625 C3.70940713 4.66665423 3.38640576 7.65115007 3 11 C2.67 11 2.34 11 2 11 C1.6596875 9.329375 1.6596875 9.329375 1.3125 7.625 C0.39376342 3.83961627 0.39376342 3.83961627 -2.625 2.5625 C-3.40875 2.376875 -4.1925 2.19125 -5 2 C-5 1.67 -5 1.34 -5 1 C-3.35 0.67 -1.7 0.34 0 0 Z " fill="#0B0B0B" transform="translate(157,64)"/>
<path d="M0 0 C0.33 0.66 0.66 1.32 1 2 C-0.98 2 -2.96 2 -5 2 C-5.99 4.31 -6.98 6.62 -8 9 C-9.32 8.67 -10.64 8.34 -12 8 C-11.34 7.34 -10.68 6.68 -10 6 C-9.7834375 5.01 -9.7834375 5.01 -9.5625 4 C-8.21704134 -0.78385301 -4.10926464 -0.18263398 0 0 Z " fill="#0A0A0A" transform="translate(86,76)"/>
<path d="M0 0 C1.32 0 2.64 0 4 0 C4 1.98 4 3.96 4 6 C2.68 6.33 1.36 6.66 0 7 C0 4.69 0 2.38 0 0 Z " fill="#131313" transform="translate(133,133)"/>
<path d="M0 0 C0.66 0.33 1.32 0.66 2 1 C2.625 4.0625 2.625 4.0625 3 7 C2.01 7.33 1.02 7.66 0 8 C0 7.34 0 6.68 0 6 C-1.32 5.67 -2.64 5.34 -4 5 C-2.68 3.35 -1.36 1.7 0 0 Z " fill="#2A2A2A" transform="translate(112,172)"/>
<path d="M0 0 C0.66 0 1.32 0 2 0 C2 2.31 2 4.62 2 7 C2.66 7.33 3.32 7.66 4 8 C2.68 8 1.36 8 0 8 C-0.38063221 5.6739143 -0.71269945 3.33944736 -1 1 C-0.67 0.67 -0.34 0.34 0 0 Z " fill="#E7E7E7" transform="translate(145,163)"/>
<path d="M0 0 C0.66 0.66 1.32 1.32 2 2 C0.74057614 3.19959375 -0.53295286 4.38439443 -1.8125 5.5625 C-2.87404297 6.55443359 -2.87404297 6.55443359 -3.95703125 7.56640625 C-4.63121094 8.03949219 -5.30539063 8.51257813 -6 9 C-6.99 8.67 -7.98 8.34 -9 8 C-6.03 5.36 -3.06 2.72 0 0 Z " fill="#F5F5E2" transform="translate(69,164)"/>
<path d="M0 0 C0.66 0 1.32 0 2 0 C0.84414715 3.91211733 -0.35534962 6.8745041 -3 10 C-3.66 9.67 -4.32 9.34 -5 9 C-3.35 6.03 -1.7 3.06 0 0 Z " fill="#EEF9E0" transform="translate(85,178)"/>
<path d="M0 0 C0.66 0 1.32 0 2 0 C2 0.99 2 1.98 2 3 C2.99 3 3.98 3 5 3 C5 2.01 5 1.02 5 0 C5.66 0 6.32 0 7 0 C6.67 1.65 6.34 3.3 6 5 C4.35 5 2.7 5 1 5 C0.67 3.35 0.34 1.7 0 0 Z " fill="#ECECEC" transform="translate(164,139)"/>
<path d="M0 0 C3.61941735 1.50239966 6.7321794 2.82145293 10 5 C10 5.66 10 6.32 10 7 C6.12697862 5.85569823 2.99736561 4.76679902 0 2 C0 1.34 0 0.68 0 0 Z " fill="#E0E0E0" transform="translate(52,80)"/>
<path d="M0 0 C0.33 0 0.66 0 1 0 C1 2.97 1 5.94 1 9 C-0.32 7.68 -1.64 6.36 -3 5 C-1.125 1.125 -1.125 1.125 0 0 Z " fill="#0C0C0C" transform="translate(109,131)"/>
<path d="M0 0 C0 0.66 0 1.32 0 2 C-4.29 1.67 -8.58 1.34 -13 1 C-13 0.67 -13 0.34 -13 0 C-8.38926889 -1.29676812 -4.66159911 -0.71109139 0 0 Z " fill="#CFCFCF" transform="translate(53,112)"/>
<path d="M0 0 C0.33 0.66 0.66 1.32 1 2 C1.66 2.33 2.32 2.66 3 3 C1.71186658 3.83878455 0.41936744 4.67086783 -0.875 5.5 C-1.59429687 5.9640625 -2.31359375 6.428125 -3.0546875 6.90625 C-5 8 -5 8 -7 8 C-5.74381926 4.23145777 -4.33985294 3.92041544 -1 2 C-0.67 1.34 -0.34 0.68 0 0 Z " fill="#DBF6DB" transform="translate(181,73)"/>
<path d="M0 0 C0.99 0 1.98 0 3 0 C2.67 1.65 2.34 3.3 2 5 C1.01 5 0.02 5 -1 5 C-1.33 5.66 -1.66 6.32 -2 7 C-1.34 7.33 -0.68 7.66 0 8 C-0.99 8 -1.98 8 -3 8 C-2.45276317 4.62537285 -1.9451 2.91765 0 0 Z " fill="#F3F3F3" transform="translate(144,67)"/>
<path d="M0 0 C4.41889613 1.35021826 6.34345343 3.26115668 9 7 C5.13066838 6.42676569 2.84777943 4.61046448 0 2 C0 1.34 0 0.68 0 0 Z " fill="#E2E2E2" transform="translate(182,172)"/>
<path d="M0 0 C0.66 1.32 1.32 2.64 2 4 C3.32 3.67 4.64 3.34 6 3 C6 3.99 6 4.98 6 6 C5.34 6 4.68 6 4 6 C4 6.66 4 7.32 4 8 C3.01 7.67 2.02 7.34 1 7 C0.67 4.69 0.34 2.38 0 0 Z " fill="#8D8D8D" transform="translate(162,98)"/>
<path d="M0 0 C1.32 0.33 2.64 0.66 4 1 C3.34 1 2.68 1 2 1 C1.71125 1.598125 1.4225 2.19625 1.125 2.8125 C0 5 0 5 -2 8 C-2.66 8 -3.32 8 -4 8 C-2.87548273 5.0280615 -1.77706209 2.66559313 0 0 Z " fill="#DEDEDE" transform="translate(163,58)"/>
<path d="M0 0 C1.65 0.33 3.3 0.66 5 1 C5 1.99 5 2.98 5 4 C4.01 4.33 3.02 4.66 2 5 C1.01 4.34 0.02 3.68 -1 3 C-0.67 2.01 -0.34 1.02 0 0 Z " fill="#202020" transform="translate(100,38)"/>
<path d="M0 0 C0.66 0 1.32 0 2 0 C2 2.31 2 4.62 2 7 C0.02 7.99 0.02 7.99 -2 9 C-2.33 8.34 -2.66 7.68 -3 7 C-2.34 6.67 -1.68 6.34 -1 6 C-0.34227572 2.97065509 -0.34227572 2.97065509 0 0 Z " fill="#F0F0F0" transform="translate(179,135)"/>
<path d="M0 0 C0.99 0 1.98 0 3 0 C3 2.31 3 4.62 3 7 C2.01 7 1.02 7 0 7 C0 4.69 0 2.38 0 0 Z " fill="#0E0E0E" transform="translate(118,133)"/>
<path d="M0 0 C0.99 0 1.98 0 3 0 C3 2.31 3 4.62 3 7 C2.01 7 1.02 7 0 7 C0 4.69 0 2.38 0 0 Z " fill="#0F0F0F" transform="translate(112,133)"/>
<path d="M0 0 C3.63 0.66 7.26 1.32 11 2 C8 4 8 4 5.95703125 3.7578125 C3.97135417 3.171875 1.98567708 2.5859375 0 2 C0 1.34 0 0.68 0 0 Z " fill="#C9C9C9" transform="translate(32,91)"/>
<path d="M0 0 C0.66 0 1.32 0 2 0 C2 0.66 2 1.32 2 2 C3.32 2 4.64 2 6 2 C6 2.66 6 3.32 6 4 C3.36 4 0.72 4 -2 4 C-1.34 2.68 -0.68 1.36 0 0 Z " fill="#D2D2D2" transform="translate(71,84)"/>
<path d="M0 0 C0.99 0.33 1.98 0.66 3 1 C4.6875 4.5625 4.6875 4.5625 6 8 C5.01 8.495 5.01 8.495 4 9 C0 2.25 0 2.25 0 0 Z " fill="#E1F8E1" transform="translate(153,178)"/>
<path d="M0 0 C0.5534764 2.07553648 1 3.84365964 1 6 C-0.65 6 -2.3 6 -4 6 C-3.67 4.35 -3.34 2.7 -3 1 C-2.01 0.67 -1.02 0.34 0 0 Z " fill="#999999" transform="translate(79,149)"/>
<path d="M0 0 C0.99 0.33 1.98 0.66 3 1 C2.67 2.32 2.34 3.64 2 5 C0.68 5 -0.64 5 -2 5 C-1.125 1.125 -1.125 1.125 0 0 Z " fill="#969696" transform="translate(70,125)"/>
<path d="M0 0 C0.99 0.33 1.98 0.66 3 1 C3 2.65 3 4.3 3 6 C2.01 6.33 1.02 6.66 0 7 C0 4.69 0 2.38 0 0 Z " fill="#2A2A2A" transform="translate(88,148)"/>
<path d="M0 0 C0.99 0.33 1.98 0.66 3 1 C3 2.65 3 4.3 3 6 C2.01 6.33 1.02 6.66 0 7 C0 4.69 0 2.38 0 0 Z " fill="#252525" transform="translate(176,135)"/>
<path d="M0 0 C0.66 0 1.32 0 2 0 C2 2.31 2 4.62 2 7 C1.01 6.67 0.02 6.34 -1 6 C-1.042721 4.33388095 -1.04063832 2.66617115 -1 1 C-0.67 0.67 -0.34 0.34 0 0 Z " fill="#1E1E1E" transform="translate(78,123)"/>
<path d="M0 0 C4.875 0.875 4.875 0.875 6 2 C6.04080783 3.99958364 6.04254356 6.00045254 6 8 C5.01 7.67 4.02 7.34 3 7 C3 5.02 3 3.04 3 1 C2.01 0.67 1.02 0.34 0 0 Z " fill="#C0C0C0" transform="translate(77,121)"/>
<path d="M0 0 C0.99 0.33 1.98 0.66 3 1 C3 2.65 3 4.3 3 6 C2.01 6.33 1.02 6.66 0 7 C0 4.69 0 2.38 0 0 Z " fill="#2E2E2E" transform="translate(80,100)"/>
<path d="M0 0 C1.65 0 3.3 0 5 0 C4.67 1.32 4.34 2.64 4 4 C2.35 4 0.7 4 -1 4 C-0.67 2.68 -0.34 1.36 0 0 Z " fill="#BBBBBB" transform="translate(69,98)"/>
<path d="M0 0 C0.66 0 1.32 0 2 0 C2 2.31 2 4.62 2 7 C1.01 6.67 0.02 6.34 -1 6 C-1.042721 4.33388095 -1.04063832 2.66617115 -1 1 C-0.67 0.67 -0.34 0.34 0 0 Z " fill="#222222" transform="translate(175,97)"/>
<path d="M0 0 C0.66 0.33 1.32 0.66 2 1 C2 2.98 2 4.96 2 7 C1.01 7 0.02 7 -1 7 C-1.04254356 5.00045254 -1.04080783 2.99958364 -1 1 C-0.67 0.67 -0.34 0.34 0 0 Z " fill="#2C2C2C" transform="translate(92,79)"/>
<path d="M0 0 C0.99 0 1.98 0 3 0 C3 1.98 3 3.96 3 6 C2.01 6 1.02 6 0 6 C0 4.02 0 2.04 0 0 Z " fill="#2A2A2A" transform="translate(147,164)"/>
<path d="M0 0 C4.8333472 -0.08333357 9.23692563 0.04738513 14 1 C14 1.33 14 1.66 14 2 C11.36 2.33 8.72 2.66 6 3 C6 2.34 6 1.68 6 1 C4.02 1 2.04 1 0 1 C0 0.67 0 0.34 0 0 Z " fill="#383939" transform="translate(37,129)"/>
<path d="M0 0 C0.99 0 1.98 0 3 0 C3 1.98 3 3.96 3 6 C2.01 6 1.02 6 0 6 C0 4.02 0 2.04 0 0 Z " fill="#282828" transform="translate(153,69)"/>
<path d="M0 0 C1.32 0.33 2.64 0.66 4 1 C3.67 2.32 3.34 3.64 3 5 C2.01 5 1.02 5 0 5 C0 3.35 0 1.7 0 0 Z " fill="#181717" transform="translate(108,38)"/>
<path d="M0 0 C0.33 0 0.66 0 1 0 C1 2.64 1 5.28 1 8 C0.01 8.33 -0.98 8.66 -2 9 C-1.34 6.03 -0.68 3.06 0 0 Z " fill="#E4E4E4" transform="translate(105,201)"/>
<path d="M0 0 C0.33 0 0.66 0 1 0 C1.125 2.875 1.125 2.875 1 6 C0.34 6.66 -0.32 7.32 -1 8 C-1.99 7.67 -2.98 7.34 -4 7 C-2.68 4.69 -1.36 2.38 0 0 Z " fill="#CCCCCC" transform="translate(152,164)"/>
<path d="M0 0 C2.475 0.495 2.475 0.495 5 1 C5 2.98 5 4.96 5 7 C4.34 7 3.68 7 3 7 C2.814375 5.824375 2.814375 5.824375 2.625 4.625 C2.20882007 1.85942178 2.20882007 1.85942178 0 0 Z " fill="#F4F4F4" transform="translate(88,147)"/>
<path d="M0 0 C2.0625 0.4375 2.0625 0.4375 4 1 C3.01 1 2.02 1 1 1 C1 3.31 1 5.62 1 8 C-0.5625 6.75 -0.5625 6.75 -2 5 C-1.74853421 2.86254078 -1.54074221 1.54074221 0 0 Z " fill="#B7B7B7" transform="translate(87,146)"/>
<path d="M0 0 C-3.96 1.98 -3.96 1.98 -8 4 C-8 3.01 -8 2.02 -8 1 C-3.375 -1.125 -3.375 -1.125 0 0 Z " fill="#FAFADD" transform="translate(59,148)"/>
<path d="M0 0 C-4.95 2.475 -4.95 2.475 -10 5 C-10 4.01 -10 3.02 -10 2 C-8.71211992 1.46987262 -7.41953322 0.9511671 -6.125 0.4375 C-5.40570313 0.14746094 -4.68640625 -0.14257812 -3.9453125 -0.44140625 C-2 -1 -2 -1 0 0 Z " fill="#1EBB1E" transform="translate(194,98)"/>
<path d="M0 0 C1.32 0.33 2.64 0.66 4 1 C3.67 2.65 3.34 4.3 3 6 C2.01 6.33 1.02 6.66 0 7 C0 6.34 0 5.68 0 5 C0.66 5 1.32 5 2 5 C1.34 3.35 0.68 1.7 0 0 Z " fill="#F3F3F3" transform="translate(166,99)"/>
<path d="M0 0 C-0.33 1.65 -0.66 3.3 -1 5 C-2.98 4.34 -4.96 3.68 -7 3 C-6.67 2.34 -6.34 1.68 -6 1 C-3.911361 0.32624548 -2.19636905 0 0 0 Z " fill="#121212" transform="translate(172,96)"/>
</svg>
